<svg width="1143" height="110" viewBox="0 0 1143 110" fill="none" xmlns="http://www.w3.org/2000/svg">
<path d="M0 54.7996V109.6L3.73333 109.2L7.33333 108.8L7.73333 83.0663L8 57.4663H44H80V83.5996V109.6L83.7333 109.2L87.3333 108.8V54.7996V0.799614L83.7333 0.399612L80 -0.00038147V25.3329V50.7996H44H8L7.73333 25.7329L7.33333 0.799614L3.73333 0.399612L0 -0.00038147V54.7996Z" fill="white"/>
<path d="M154.8 2.13353C143.6 5.33353 130.4 14.8002 124.133 24.2669C117.066 34.8002 115.333 40.9335 115.466 55.4669C115.466 64.6669 116.266 69.3335 118.533 75.2002C131.733 108.8 176 120.267 205.866 97.7335C238.8 72.8002 230.8 19.0669 192 4.0002C182.4 0.266861 164.666 -0.666466 154.8 2.13353ZM186.133 10.1335C204.933 15.7335 218.666 34.5335 218.666 54.6669C218.666 68.4002 210.933 84.8002 201.333 92.0002C191.6 99.0669 184.133 101.467 170.533 101.467C158.533 101.467 157.066 101.2 148.266 96.6669C133.466 89.3335 124.666 76.4002 123.2 60.0002C121.066 37.0669 132.933 17.8669 153.733 10.6669C162.266 7.6002 177.2 7.46687 186.133 10.1335Z" fill="white"/>
<path d="M254 1.73295C253.6 2.66628 253.466 27.1996 253.6 56.1329L254 108.8L257.6 109.2L261.333 109.6L261.6 62.5329L262 15.4663L295.866 58.7996C334.266 107.866 335.6 109.466 338.933 109.466C341.2 109.466 341.333 106.666 341.333 54.6663V-0.00038147L337.733 0.399612L334 0.799614L333.333 46.9329L332.666 93.0663L296.666 46.9329C261.333 1.86628 256.133 -3.73372 254 1.73295Z" fill="white"/>
<path d="M407.6 2.79869C392.4 7.59869 379.467 18.7987 373.067 32.932C370.4 38.532 370 41.732 370 54.7987C370 68.6654 370.4 70.932 373.6 77.732C386 104.132 419.2 116.532 447.067 105.332C469.6 96.132 484 70.6654 480 46.532C474.667 12.932 440.4 -7.73464 407.6 2.79869ZM446.933 12.6654C462.667 20.132 472.267 36.132 472.267 54.7987C472.4 68.932 468.533 78.532 458.8 88.2654C448.933 98.132 440.133 101.465 424.667 101.465C409.333 101.465 400.4 97.9987 390.933 88.6654C380.4 77.9987 378 71.8654 378 54.7987C378 41.332 378.133 40.3987 382.533 32.3987C392 15.0654 405.2 7.86536 426.667 8.53203C437.2 8.93203 440.533 9.59869 446.933 12.6654Z" fill="white"/>
<path d="M509.067 0.932808C508.4 1.46614 508 3.19947 508 4.93281C508 7.86614 508 7.86614 533.733 8.39948C559.333 8.79948 559.6 8.79948 567.333 12.7995C573.6 15.9995 575.867 17.9995 578.4 22.9328C582 29.9995 582.667 40.6661 580.133 48.5328C578.133 54.3995 569.867 62.1328 563.067 64.1328C560.267 65.0661 546.8 65.9995 532.933 66.3995L508 67.0661L508.267 87.9995L508.667 108.799H512H515.333L515.733 91.0661L516.133 73.4661H537.067L558 73.5995L569.333 89.7328C575.6 98.6661 581.467 106.666 582.4 107.733C584.4 109.599 590.667 110.133 590.667 108.399C590.667 107.733 585.333 99.7328 578.933 90.6661C572.4 81.4661 566.667 73.3328 566.267 72.3995C565.6 71.4661 567.467 69.9995 570.933 68.3995C583.067 62.9328 589.6 52.1328 589.6 37.3328C589.6 25.9995 586.4 18.6661 578.267 11.1995C569.333 2.93281 562.533 1.33281 534 0.532806C520.8 0.132805 509.6 0.266144 509.067 0.932808Z" fill="white"/>
<path d="M650.133 1.46634C642.133 3.59967 630 10.533 624 16.6663C620.933 19.5997 616.533 25.9997 614.267 30.7997C610.267 38.933 610 40.133 610 54.7997C610 69.4663 610.267 70.6663 614.267 78.933C619.733 89.8663 629.067 98.933 641.067 104.533C649.333 108.533 650.933 108.8 664 108.666C680.133 108.666 690.4 105.466 698.267 98.2663C702.8 94.133 702.8 93.9997 700.4 91.733C698 89.5997 697.6 89.733 692.533 93.333C684.8 98.933 676.133 101.466 664 101.466C650.667 101.466 641.067 98.133 632.4 90.133C606.133 66.6663 614.4 21.8663 646.933 10.933C656.8 7.59967 672.933 7.19967 681.2 10.133C684.267 11.1997 689.333 13.8663 692.533 15.9997C698.133 19.8663 698.4 19.9997 700.533 17.5997C702.667 15.1997 702.533 14.933 697.733 10.933C690.133 4.66634 679.733 1.19967 666.667 0.666336C660.4 0.399666 653.067 0.799667 650.133 1.46634Z" fill="white"/>
<path d="M729.333 54.6668V109.467H764H798.667V105.467V101.467H768H737.333L737.067 51.0668L736.667 0.800125L733.067 0.400124L729.333 0.00012207V54.6668Z" fill="white"/>
<path d="M848.8 1.5987C840.667 3.46537 828.4 10.6654 821.867 17.332C796.933 42.532 804.8 88.2654 836.4 103.332C866.133 117.332 899.2 106.932 912.933 79.0654C917.867 69.332 918 68.3987 918 54.7987C918 41.1987 917.867 40.2654 912.933 30.532C907.733 19.732 899.867 11.4654 890.4 6.66537C878.933 0.798698 861.333 -1.33463 848.8 1.5987ZM885.6 13.1987C895.467 17.9987 900.8 23.5987 906.4 34.7987C909.6 41.1987 910 43.732 910 54.7987C910 65.1987 909.467 68.6654 906.933 73.9987C901.867 85.0654 895.6 91.5987 884.667 96.932C874.933 101.732 874.8 101.732 861.067 101.199C849.467 100.799 846.267 100.132 840.667 97.0654C832.133 92.532 829.333 90.2654 823.733 82.6654C813.733 69.332 812.133 50.2654 819.733 34.532C828.4 15.9987 842.4 7.86536 864.667 8.53204C875.333 8.7987 877.867 9.33203 885.6 13.1987Z" fill="white"/>
<path d="M976.134 2.26725C959.734 6.66725 948.267 16.2673 940.934 31.8672C936.934 40.1339 936.667 41.8672 936.667 54.8006C936.667 67.7339 936.934 69.4672 940.934 77.7339C948.4 93.6006 959.734 103.067 976.667 107.467C993.867 111.867 1013.47 108.001 1026.67 97.6006C1029.87 95.0672 1029.87 94.9339 1027.47 92.2672C1025.07 89.6006 1025.07 89.6006 1019.6 93.6006C1012.13 98.9339 1002.8 101.467 990 101.467C980.134 101.467 978.134 100.934 969.6 96.8006C958.934 91.4672 953.067 85.4672 948.134 74.8006C945.2 68.5339 944.667 65.6006 944.667 54.8006C944.667 44.0006 945.2 41.0672 948.134 34.8006C953.067 24.1339 958.934 18.1339 969.067 13.2006C976.667 9.46725 979.734 8.66725 989.6 8.40058C1002.93 7.86725 1011.33 10.0006 1019.73 16.1339C1025.07 20.0006 1025.07 20.0006 1027.47 17.3339C1029.87 14.6673 1029.87 14.5339 1026.67 12.0006C1013.47 1.60059 993.2 -2.39941 976.134 2.26725Z" fill="white"/>
<path d="M1056.67 1.86627C1056.27 2.66627 1056.13 27.1996 1056.27 56.1329L1056.67 108.8L1060.4 109.2L1064 109.6V95.4663V81.1996L1075.47 69.0663C1081.73 62.2663 1087.33 56.6663 1088 56.3996C1088.53 56.2663 1099.33 67.9996 1112.13 82.7996C1131.87 105.6 1135.73 109.466 1138.93 109.466C1140.93 109.466 1142.67 108.933 1142.67 108.266C1142.67 107.466 1131.6 94.1329 1118.13 78.3996L1093.6 49.8663L1116.8 25.9996C1129.47 12.9329 1139.87 1.73294 1139.87 1.06627C1140 0.532936 1138.4 0.132935 1136.4 0.132935C1133.2 -0.000396729 1127.07 5.73294 1098.4 35.0663L1064 70.1329V35.0663V0.132935H1060.67C1058.8 0.132935 1056.93 0.932938 1056.67 1.86627Z" fill="white"/>
</svg>
